<svg width="204" height="64" viewBox="0 0 204 64" fill="none" xmlns="http://www.w3.org/2000/svg">
<path d="M32.6485 47.9906C33.61 46.3368 36.4652 44.097 38.9135 42.7174C41.3619 41.3378 44.7614 41.0658 48.7048 39.8919C52.6482 38.7179 58.6993 31.4196 58.6993 26.4299C58.6993 21.4401 57.5789 17.5939 53.3364 14.7356C48.8735 11.7289 38.0644 13.615 34.155 14.7356C30.2455 15.8562 23.7215 16.4679 17.3673 21.8303C12.5909 25.8611 10.6296 28.5679 10.3001 34.9551C10.0148 40.4846 11.4621 49.1115 14.0582 51.9961C16.6543 54.8807 21.6267 57.2856 25.2998 55.3393C29.2502 53.2461 31.4466 50.0579 32.6485 47.9906Z" fill="url(#paint0_linear_194_7021)"/>
<path opacity="0.8" d="M16.9008 42.6618C18.7501 42.1723 23.8131 42.9552 25.0595 43.3632C26.1927 43.8164 30.8359 45.121 31.7225 46.2188C33.1503 47.9865 34.3742 51.0605 36.4818 52.3378C38.7255 53.6976 43.0089 55.3974 47.7002 53.6976C50.7998 52.5746 51.3404 48.2948 50.3616 43.2738C49.3319 37.992 44.9806 30.3091 42.4068 26.1403C40.2703 22.6798 32.8784 14.0595 24.5935 13.3582C18.3659 12.8311 15.065 13.3582 10.3156 17.6416C6.20387 21.3498 1.12712 28.4734 0.923148 32.3488C0.719179 36.2242 2.53465 41.4408 6.50816 42.6618C10.7817 43.9751 14.5891 43.2738 16.9008 42.6618Z" fill="url(#paint1_linear_194_7021)"/>
<g clip-path="url(#clip0_194_7021)">
<path fill-rule="evenodd" clip-rule="evenodd" d="M43.839 19.6769C37.4706 22.1059 31.3096 28.2695 27.6349 33.7447C27.093 34.5522 26.69 35.217 26.2046 36.071C26.0548 36.3345 25.757 37.0291 25.4454 37.1593C24.4442 37.5778 24.0683 35.0626 19.2181 33.9508C18.6162 33.8128 18.1203 33.9213 17.6733 34.1381C16.6321 34.6433 16.8612 35.9768 17.476 36.6399C18.074 37.2849 19.5586 37.2397 22.054 41.5332C23.8933 44.6977 23.7645 46.1496 24.1253 46.9496C24.495 47.7691 25.4064 48.5911 26.5456 47.8431C27.343 47.3196 27.4522 46.241 27.7241 45.2726C30.0719 36.912 36.1748 28.1898 43.0686 22.9714C43.8561 22.3752 44.8808 21.8321 45.2131 21.3329C46.107 19.9904 44.781 19.3176 43.839 19.6769V19.6769Z" fill="#F2F2F2"/>
</g>
<path d="M67.678 30.5V22.002H69.974V30.5H67.678ZM64.808 22.282V20.28H72.858V22.282H64.808ZM74.3023 30.5V20.28H76.5423V30.5H74.3023ZM76.2623 30.5V28.596H80.7283V30.5H76.2623ZM76.2623 26.258V24.354H80.4063V26.258H76.2623ZM76.2623 22.184V20.28H80.6303V22.184H76.2623ZM82.6148 30.5V20.28H85.7788L88.1168 26.02H88.3828L90.6928 20.28H93.9128V30.5H91.6448V21.778L91.9668 21.806L89.2648 28.428H87.0808L84.3648 21.806L84.7148 21.778V30.5H82.6148ZM95.2386 30.5L98.6126 20.28H102.323L105.823 30.5H103.443L100.615 21.862L101.343 22.156H99.5366L100.293 21.862L97.5346 30.5H95.2386ZM97.8006 27.966L98.5006 26.062H102.505L103.219 27.966H97.8006ZM107.156 30.5V20.28H110.922L114.772 28.638H115.248L114.968 28.89V20.28H117.124V30.5H113.33L109.48 22.142H109.004L109.284 21.89V30.5H107.156Z" fill="#333333"/>
<path d="M64.8977 38.3317V37.2273H70.7003V38.3317H68.4524V44.5H67.1456V38.3317H64.8977ZM73.3858 44.6065C72.839 44.6065 72.3667 44.4929 71.9689 44.2656C71.5736 44.036 71.2694 43.7116 71.0563 43.2926C70.8432 42.8712 70.7367 42.3752 70.7367 41.8047C70.7367 41.2436 70.8432 40.7512 71.0563 40.3274C71.2717 39.9013 71.5724 39.5698 71.9583 39.3331C72.3442 39.094 72.7975 38.9744 73.3184 38.9744C73.6545 38.9744 73.9718 39.0289 74.2701 39.1378C74.5707 39.2443 74.8359 39.41 75.0655 39.6349C75.2975 39.8598 75.4798 40.1463 75.6124 40.4943C75.745 40.84 75.8113 41.2519 75.8113 41.7301V42.1243H71.3404V41.2578H74.579C74.5766 41.0116 74.5234 40.7926 74.4192 40.6009C74.315 40.4067 74.1694 40.254 73.9824 40.1428C73.7978 40.0315 73.5823 39.9759 73.3361 39.9759C73.0733 39.9759 72.8425 40.0398 72.6436 40.1676C72.4448 40.2931 72.2897 40.4588 72.1784 40.6648C72.0695 40.8684 72.0139 41.0921 72.0115 41.3359V42.0923C72.0115 42.4096 72.0695 42.6818 72.1855 42.9091C72.3016 43.134 72.4637 43.3068 72.6721 43.4276C72.8804 43.5459 73.1242 43.6051 73.4036 43.6051C73.5906 43.6051 73.7599 43.5791 73.9114 43.527C74.0629 43.4725 74.1943 43.3932 74.3056 43.2891C74.4168 43.1849 74.5009 43.0559 74.5577 42.902L75.758 43.0369C75.6822 43.3542 75.5378 43.6312 75.3248 43.8679C75.1141 44.1023 74.8442 44.2846 74.5151 44.4148C74.186 44.5426 73.8096 44.6065 73.3858 44.6065ZM78.1843 41.304V44.5H76.8988V39.0455H78.1275V39.9723H78.1914C78.3169 39.6669 78.5169 39.4242 78.7915 39.2443C79.0685 39.0644 79.4106 38.9744 79.8178 38.9744C80.1942 38.9744 80.5221 39.0549 80.8015 39.2159C81.0832 39.3769 81.301 39.6101 81.4549 39.9155C81.6112 40.2209 81.6881 40.5914 81.6857 41.027V44.5H80.4002V41.2259C80.4002 40.8613 80.3055 40.576 80.1161 40.37C79.9291 40.1641 79.6699 40.0611 79.3384 40.0611C79.1135 40.0611 78.9135 40.1108 78.7383 40.2102C78.5655 40.3073 78.4293 40.4482 78.3299 40.6328C78.2328 40.8175 78.1843 41.0412 78.1843 41.304ZM84.5621 44.6101C84.2165 44.6101 83.9052 44.5485 83.6282 44.4254C83.3536 44.3 83.1358 44.1153 82.9748 43.8714C82.8162 43.6276 82.7369 43.3269 82.7369 42.9695C82.7369 42.6617 82.7937 42.4072 82.9073 42.206C83.021 42.0047 83.176 41.8438 83.3725 41.723C83.569 41.6023 83.7904 41.5111 84.0366 41.4496C84.2852 41.3857 84.542 41.3395 84.8072 41.3111C85.1268 41.2779 85.386 41.2483 85.5849 41.2223C85.7837 41.1939 85.9281 41.1513 86.0181 41.0945C86.1104 41.0353 86.1566 40.9441 86.1566 40.821V40.7997C86.1566 40.5322 86.0773 40.325 85.9187 40.1783C85.7601 40.0315 85.5316 39.9581 85.2333 39.9581C84.9184 39.9581 84.6687 40.0268 84.484 40.1641C84.3017 40.3014 84.1786 40.4635 84.1147 40.6506L82.9144 40.4801C83.0091 40.1487 83.1654 39.8717 83.3832 39.6491C83.601 39.4242 83.8673 39.2562 84.1822 39.1449C84.497 39.0312 84.8451 38.9744 85.2262 38.9744C85.489 38.9744 85.7506 39.0052 86.011 39.0668C86.2714 39.1283 86.5094 39.2301 86.7248 39.3722C86.9402 39.5118 87.113 39.7024 87.2433 39.9439C87.3758 40.1854 87.4421 40.4872 87.4421 40.8494V44.5H86.2063V43.7507H86.1637C86.0856 43.9022 85.9755 44.0443 85.8335 44.1768C85.6938 44.3071 85.5174 44.4124 85.3043 44.4929C85.0936 44.571 84.8462 44.6101 84.5621 44.6101ZM84.896 43.6655C85.154 43.6655 85.3777 43.6146 85.5671 43.5128C85.7565 43.4086 85.9021 43.2713 86.0039 43.1009C86.1081 42.9304 86.1602 42.7446 86.1602 42.5433V41.9006C86.1199 41.9337 86.0513 41.9645 85.9542 41.9929C85.8595 42.0213 85.753 42.0462 85.6346 42.0675C85.5162 42.0888 85.399 42.1077 85.283 42.1243C85.167 42.1409 85.0664 42.1551 84.9812 42.1669C84.7894 42.1929 84.6178 42.2356 84.4663 42.2947C84.3147 42.3539 84.1952 42.4368 84.1076 42.5433C84.02 42.6475 83.9762 42.7824 83.9762 42.9482C83.9762 43.1849 84.0626 43.3636 84.2354 43.4844C84.4083 43.6051 84.6284 43.6655 84.896 43.6655ZM90.0202 41.304V44.5H88.7347V39.0455H89.9634V39.9723H90.0273C90.1528 39.6669 90.3529 39.4242 90.6275 39.2443C90.9045 39.0644 91.2466 38.9744 91.6538 38.9744C92.0302 38.9744 92.3581 39.0549 92.6374 39.2159C92.9192 39.3769 93.137 39.6101 93.2908 39.9155C93.4471 40.2209 93.524 40.5914 93.5217 41.027V44.5H92.2362V41.2259C92.2362 40.8613 92.1415 40.576 91.9521 40.37C91.765 40.1641 91.5058 40.0611 91.1744 40.0611C90.9495 40.0611 90.7494 40.1108 90.5742 40.2102C90.4014 40.3073 90.2653 40.4482 90.1658 40.6328C90.0688 40.8175 90.0202 41.0412 90.0202 41.304ZM97.5522 39.0455V40.0398H94.4165V39.0455H97.5522ZM95.1907 37.7386H96.4762V42.8594C96.4762 43.0322 96.5022 43.1648 96.5543 43.2571C96.6088 43.3471 96.6798 43.4086 96.7674 43.4418C96.855 43.4749 96.9521 43.4915 97.0586 43.4915C97.1391 43.4915 97.2125 43.4856 97.2788 43.4737C97.3474 43.4619 97.3995 43.4512 97.435 43.4418L97.6516 44.4467C97.583 44.4704 97.4847 44.4964 97.3569 44.5249C97.2314 44.5533 97.0775 44.5698 96.8952 44.5746C96.5733 44.584 96.2833 44.5355 96.0252 44.429C95.7672 44.3201 95.5624 44.152 95.4109 43.9247C95.2617 43.6974 95.1883 43.4134 95.1907 43.0724V37.7386ZM101.165 37.2273H102.777L104.936 42.4972H105.021L107.18 37.2273H108.792V44.5H107.528V39.5036H107.461L105.451 44.4787H104.506L102.496 39.4929H102.429V44.5H101.165V37.2273ZM111.74 44.6101C111.394 44.6101 111.083 44.5485 110.806 44.4254C110.531 44.3 110.314 44.1153 110.153 43.8714C109.994 43.6276 109.915 43.3269 109.915 42.9695C109.915 42.6617 109.971 42.4072 110.085 42.206C110.199 42.0047 110.354 41.8438 110.55 41.723C110.747 41.6023 110.968 41.5111 111.214 41.4496C111.463 41.3857 111.72 41.3395 111.985 41.3111C112.305 41.2779 112.564 41.2483 112.763 41.2223C112.961 41.1939 113.106 41.1513 113.196 41.0945C113.288 41.0353 113.334 40.9441 113.334 40.821V40.7997C113.334 40.5322 113.255 40.325 113.096 40.1783C112.938 40.0315 112.709 39.9581 112.411 39.9581C112.096 39.9581 111.846 40.0268 111.662 40.1641C111.479 40.3014 111.356 40.4635 111.292 40.6506L110.092 40.4801C110.187 40.1487 110.343 39.8717 110.561 39.6491C110.779 39.4242 111.045 39.2562 111.36 39.1449C111.675 39.0312 112.023 38.9744 112.404 38.9744C112.667 38.9744 112.928 39.0052 113.189 39.0668C113.449 39.1283 113.687 39.2301 113.903 39.3722C114.118 39.5118 114.291 39.7024 114.421 39.9439C114.554 40.1854 114.62 40.4872 114.62 40.8494V44.5H113.384V43.7507H113.341C113.263 43.9022 113.153 44.0443 113.011 44.1768C112.872 44.3071 112.695 44.4124 112.482 44.4929C112.271 44.571 112.024 44.6101 111.74 44.6101ZM112.074 43.6655C112.332 43.6655 112.555 43.6146 112.745 43.5128C112.934 43.4086 113.08 43.2713 113.182 43.1009C113.286 42.9304 113.338 42.7446 113.338 42.5433V41.9006C113.298 41.9337 113.229 41.9645 113.132 41.9929C113.037 42.0213 112.931 42.0462 112.812 42.0675C112.694 42.0888 112.577 42.1077 112.461 42.1243C112.345 42.1409 112.244 42.1551 112.159 42.1669C111.967 42.1929 111.796 42.2356 111.644 42.2947C111.492 42.3539 111.373 42.4368 111.285 42.5433C111.198 42.6475 111.154 42.7824 111.154 42.9482C111.154 43.1849 111.24 43.3636 111.413 43.4844C111.586 43.6051 111.806 43.6655 112.074 43.6655ZM117.198 41.304V44.5H115.912V39.0455H117.141V39.9723H117.205C117.331 39.6669 117.531 39.4242 117.805 39.2443C118.082 39.0644 118.424 38.9744 118.831 38.9744C119.208 38.9744 119.536 39.0549 119.815 39.2159C120.097 39.3769 120.315 39.6101 120.469 39.9155C120.625 40.2209 120.702 40.5914 120.699 41.027V44.5H119.414V41.2259C119.414 40.8613 119.319 40.576 119.13 40.37C118.943 40.1641 118.684 40.0611 118.352 40.0611C118.127 40.0611 117.927 40.1108 117.752 40.2102C117.579 40.3073 117.443 40.4482 117.344 40.6328C117.247 40.8175 117.198 41.0412 117.198 41.304ZM123.576 44.6101C123.23 44.6101 122.919 44.5485 122.642 44.4254C122.367 44.3 122.149 44.1153 121.988 43.8714C121.83 43.6276 121.751 43.3269 121.751 42.9695C121.751 42.6617 121.807 42.4072 121.921 42.206C122.035 42.0047 122.19 41.8438 122.386 41.723C122.583 41.6023 122.804 41.5111 123.05 41.4496C123.299 41.3857 123.556 41.3395 123.821 41.3111C124.14 41.2779 124.4 41.2483 124.599 41.2223C124.797 41.1939 124.942 41.1513 125.032 41.0945C125.124 41.0353 125.17 40.9441 125.17 40.821V40.7997C125.17 40.5322 125.091 40.325 124.932 40.1783C124.774 40.0315 124.545 39.9581 124.247 39.9581C123.932 39.9581 123.682 40.0268 123.498 40.1641C123.315 40.3014 123.192 40.4635 123.128 40.6506L121.928 40.4801C122.023 40.1487 122.179 39.8717 122.397 39.6491C122.615 39.4242 122.881 39.2562 123.196 39.1449C123.511 39.0312 123.859 38.9744 124.24 38.9744C124.503 38.9744 124.764 39.0052 125.025 39.0668C125.285 39.1283 125.523 39.2301 125.738 39.3722C125.954 39.5118 126.127 39.7024 126.257 39.9439C126.39 40.1854 126.456 40.4872 126.456 40.8494V44.5H125.22V43.7507H125.177C125.099 43.9022 124.989 44.0443 124.847 44.1768C124.707 44.3071 124.531 44.4124 124.318 44.4929C124.107 44.571 123.86 44.6101 123.576 44.6101ZM123.91 43.6655C124.168 43.6655 124.391 43.6146 124.581 43.5128C124.77 43.4086 124.916 43.2713 125.018 43.1009C125.122 42.9304 125.174 42.7446 125.174 42.5433V41.9006C125.134 41.9337 125.065 41.9645 124.968 41.9929C124.873 42.0213 124.767 42.0462 124.648 42.0675C124.53 42.0888 124.413 42.1077 124.297 42.1243C124.181 42.1409 124.08 42.1551 123.995 42.1669C123.803 42.1929 123.631 42.2356 123.48 42.2947C123.328 42.3539 123.209 42.4368 123.121 42.5433C123.034 42.6475 122.99 42.7824 122.99 42.9482C122.99 43.1849 123.076 43.3636 123.249 43.4844C123.422 43.6051 123.642 43.6655 123.91 43.6655ZM130.121 46.6591C129.659 46.6591 129.262 46.5964 128.931 46.4709C128.599 46.3478 128.333 46.1821 128.132 45.9737C127.931 45.7654 127.791 45.5346 127.713 45.2812L128.871 45.0007C128.923 45.1072 128.998 45.2126 129.098 45.3168C129.197 45.4233 129.331 45.5109 129.499 45.5795C129.67 45.6506 129.884 45.6861 130.142 45.6861C130.506 45.6861 130.808 45.5973 131.047 45.4197C131.287 45.2446 131.406 44.9557 131.406 44.5533V43.5199H131.342C131.276 43.6525 131.179 43.7886 131.051 43.9283C130.925 44.0679 130.759 44.1851 130.55 44.2798C130.344 44.3745 130.085 44.4219 129.773 44.4219C129.354 44.4219 128.974 44.3236 128.633 44.1271C128.294 43.9283 128.024 43.6323 127.823 43.2393C127.624 42.844 127.525 42.3492 127.525 41.755C127.525 41.156 127.624 40.6506 127.823 40.2386C128.024 39.8243 128.295 39.5107 128.636 39.2976C128.977 39.0821 129.357 38.9744 129.776 38.9744C130.096 38.9744 130.358 39.0289 130.564 39.1378C130.773 39.2443 130.939 39.3733 131.062 39.5249C131.185 39.674 131.278 39.8149 131.342 39.9474H131.413V39.0455H132.681V44.5888C132.681 45.0552 132.57 45.4411 132.347 45.7464C132.125 46.0518 131.82 46.2803 131.434 46.4318C131.049 46.5833 130.611 46.6591 130.121 46.6591ZM130.131 43.4134C130.403 43.4134 130.635 43.3471 130.827 43.2145C131.019 43.0819 131.165 42.8913 131.264 42.6428C131.363 42.3942 131.413 42.0959 131.413 41.7479C131.413 41.4046 131.363 41.1039 131.264 40.8459C131.167 40.5878 131.023 40.3878 130.831 40.2457C130.641 40.1013 130.408 40.0291 130.131 40.0291C129.845 40.0291 129.606 40.1037 129.414 40.2528C129.222 40.402 129.078 40.6068 128.981 40.8672C128.884 41.1252 128.835 41.4188 128.835 41.7479C128.835 42.0817 128.884 42.3741 128.981 42.625C129.08 42.8736 129.226 43.0677 129.417 43.2074C129.612 43.3447 129.849 43.4134 130.131 43.4134ZM136.413 44.6065C135.866 44.6065 135.394 44.4929 134.996 44.2656C134.601 44.036 134.297 43.7116 134.084 43.2926C133.871 42.8712 133.764 42.3752 133.764 41.8047C133.764 41.2436 133.871 40.7512 134.084 40.3274C134.299 39.9013 134.6 39.5698 134.986 39.3331C135.372 39.094 135.825 38.9744 136.346 38.9744C136.682 38.9744 136.999 39.0289 137.297 39.1378C137.598 39.2443 137.863 39.41 138.093 39.6349C138.325 39.8598 138.507 40.1463 138.64 40.4943C138.772 40.84 138.839 41.2519 138.839 41.7301V42.1243H134.368V41.2578H137.606C137.604 41.0116 137.551 40.7926 137.447 40.6009C137.342 40.4067 137.197 40.254 137.01 40.1428C136.825 40.0315 136.61 39.9759 136.363 39.9759C136.101 39.9759 135.87 40.0398 135.671 40.1676C135.472 40.2931 135.317 40.4588 135.206 40.6648C135.097 40.8684 135.041 41.0921 135.039 41.3359V42.0923C135.039 42.4096 135.097 42.6818 135.213 42.9091C135.329 43.134 135.491 43.3068 135.699 43.4276C135.908 43.5459 136.152 43.6051 136.431 43.6051C136.618 43.6051 136.787 43.5791 136.939 43.527C137.09 43.4725 137.222 43.3932 137.333 43.2891C137.444 43.1849 137.528 43.0559 137.585 42.902L138.785 43.0369C138.71 43.3542 138.565 43.6312 138.352 43.8679C138.141 44.1023 137.872 44.2846 137.542 44.4148C137.213 44.5426 136.837 44.6065 136.413 44.6065ZM139.926 44.5V39.0455H141.155V39.9723H141.219C141.332 39.6598 141.521 39.416 141.783 39.2408C142.046 39.0632 142.36 38.9744 142.724 38.9744C143.094 38.9744 143.405 39.0644 143.658 39.2443C143.914 39.4219 144.094 39.6645 144.198 39.9723H144.255C144.376 39.6693 144.579 39.4278 144.866 39.2479C145.155 39.0656 145.497 38.9744 145.892 38.9744C146.394 38.9744 146.804 39.133 147.121 39.4503C147.438 39.7675 147.597 40.2304 147.597 40.8388V44.5H146.308V41.0376C146.308 40.6991 146.218 40.4517 146.038 40.2955C145.858 40.1368 145.638 40.0575 145.377 40.0575C145.067 40.0575 144.824 40.1546 144.649 40.3487C144.476 40.5405 144.39 40.7902 144.39 41.098V44.5H143.129V40.9844C143.129 40.7027 143.044 40.4777 142.874 40.3097C142.705 40.1416 142.485 40.0575 142.213 40.0575C142.028 40.0575 141.86 40.1049 141.709 40.1996C141.557 40.2919 141.437 40.4233 141.347 40.5938C141.257 40.7618 141.212 40.9583 141.212 41.1832V44.5H139.926ZM151.316 44.6065C150.769 44.6065 150.296 44.4929 149.899 44.2656C149.503 44.036 149.199 43.7116 148.986 43.2926C148.773 42.8712 148.666 42.3752 148.666 41.8047C148.666 41.2436 148.773 40.7512 148.986 40.3274C149.201 39.9013 149.502 39.5698 149.888 39.3331C150.274 39.094 150.727 38.9744 151.248 38.9744C151.584 38.9744 151.901 39.0289 152.2 39.1378C152.5 39.2443 152.766 39.41 152.995 39.6349C153.227 39.8598 153.41 40.1463 153.542 40.4943C153.675 40.84 153.741 41.2519 153.741 41.7301V42.1243H149.27V41.2578H152.509C152.506 41.0116 152.453 40.7926 152.349 40.6009C152.245 40.4067 152.099 40.254 151.912 40.1428C151.727 40.0315 151.512 39.9759 151.266 39.9759C151.003 39.9759 150.772 40.0398 150.573 40.1676C150.374 40.2931 150.219 40.4588 150.108 40.6648C149.999 40.8684 149.944 41.0921 149.941 41.3359V42.0923C149.941 42.4096 149.999 42.6818 150.115 42.9091C150.231 43.134 150.393 43.3068 150.602 43.4276C150.81 43.5459 151.054 43.6051 151.333 43.6051C151.52 43.6051 151.69 43.5791 151.841 43.527C151.993 43.4725 152.124 43.3932 152.235 43.2891C152.347 43.1849 152.431 43.0559 152.487 42.902L153.688 43.0369C153.612 43.3542 153.468 43.6312 153.254 43.8679C153.044 44.1023 152.774 44.2846 152.445 44.4148C152.116 44.5426 151.739 44.6065 151.316 44.6065ZM156.114 41.304V44.5H154.828V39.0455H156.057V39.9723H156.121C156.247 39.6669 156.447 39.4242 156.721 39.2443C156.998 39.0644 157.34 38.9744 157.748 38.9744C158.124 38.9744 158.452 39.0549 158.731 39.2159C159.013 39.3769 159.231 39.6101 159.385 39.9155C159.541 40.2209 159.618 40.5914 159.615 41.027V44.5H158.33V41.2259C158.33 40.8613 158.235 40.576 158.046 40.37C157.859 40.1641 157.6 40.0611 157.268 40.0611C157.043 40.0611 156.843 40.1108 156.668 40.2102C156.495 40.3073 156.359 40.4482 156.26 40.6328C156.163 40.8175 156.114 41.0412 156.114 41.304ZM163.646 39.0455V40.0398H160.51V39.0455H163.646ZM161.284 37.7386H162.57V42.8594C162.57 43.0322 162.596 43.1648 162.648 43.2571C162.703 43.3471 162.774 43.4086 162.861 43.4418C162.949 43.4749 163.046 43.4915 163.152 43.4915C163.233 43.4915 163.306 43.4856 163.373 43.4737C163.441 43.4619 163.493 43.4512 163.529 43.4418L163.745 44.4467C163.677 44.4704 163.578 44.4964 163.451 44.5249C163.325 44.5533 163.171 44.5698 162.989 44.5746C162.667 44.584 162.377 44.5355 162.119 44.429C161.861 44.3201 161.656 44.152 161.505 43.9247C161.355 43.6974 161.282 43.4134 161.284 43.0724V37.7386ZM171.211 39.2266C171.178 38.9164 171.038 38.675 170.792 38.5021C170.548 38.3293 170.231 38.2429 169.84 38.2429C169.565 38.2429 169.33 38.2843 169.133 38.3672C168.937 38.45 168.787 38.5625 168.682 38.7045C168.578 38.8466 168.525 39.0088 168.523 39.1911C168.523 39.3426 168.557 39.474 168.626 39.5852C168.697 39.6965 168.792 39.7912 168.913 39.8693C169.034 39.9451 169.168 40.009 169.314 40.0611C169.461 40.1132 169.609 40.157 169.758 40.1925L170.44 40.3629C170.715 40.4268 170.979 40.5133 171.232 40.6222C171.488 40.7311 171.716 40.8684 171.917 41.0341C172.121 41.1998 172.282 41.3999 172.4 41.6342C172.519 41.8686 172.578 42.1432 172.578 42.4581C172.578 42.8842 172.469 43.2595 172.251 43.5838C172.033 43.9058 171.719 44.1579 171.307 44.3402C170.897 44.5201 170.401 44.6101 169.819 44.6101C169.253 44.6101 168.762 44.5225 168.345 44.3473C167.931 44.1721 167.606 43.9164 167.372 43.5803C167.14 43.2441 167.015 42.8345 166.996 42.3516H168.292C168.311 42.6049 168.389 42.8156 168.526 42.9837C168.663 43.1518 168.842 43.2772 169.062 43.3601C169.285 43.4429 169.533 43.4844 169.808 43.4844C170.095 43.4844 170.345 43.4418 170.561 43.3565C170.779 43.2689 170.949 43.1482 171.072 42.9943C171.195 42.8381 171.258 42.6558 171.26 42.4474C171.258 42.258 171.202 42.1018 171.094 41.9787C170.985 41.8532 170.832 41.7491 170.635 41.6662C170.441 41.581 170.214 41.5052 169.954 41.4389L169.126 41.2259C168.527 41.072 168.054 40.8388 167.706 40.5263C167.36 40.2114 167.187 39.7936 167.187 39.2727C167.187 38.8442 167.303 38.469 167.535 38.147C167.77 37.825 168.088 37.5753 168.491 37.3977C168.893 37.2178 169.349 37.1278 169.858 37.1278C170.374 37.1278 170.826 37.2178 171.214 37.3977C171.605 37.5753 171.912 37.8227 172.134 38.1399C172.357 38.4548 172.471 38.817 172.479 39.2266H171.211ZM174.495 46.5455C174.319 46.5455 174.157 46.5313 174.008 46.5028C173.861 46.4768 173.744 46.446 173.657 46.4105L173.955 45.4091C174.142 45.4635 174.309 45.4896 174.456 45.4872C174.602 45.4848 174.731 45.4387 174.843 45.3487C174.956 45.2611 175.052 45.1143 175.13 44.9084L175.24 44.6136L173.262 39.0455H174.626L175.883 43.1648H175.94L177.201 39.0455H178.568L176.384 45.1605C176.282 45.4493 176.147 45.6967 175.979 45.9027C175.811 46.111 175.605 46.2696 175.361 46.3786C175.12 46.4898 174.831 46.5455 174.495 46.5455ZM183.768 40.4872L182.597 40.6151C182.563 40.4967 182.505 40.3854 182.423 40.2812C182.342 40.1771 182.233 40.093 182.096 40.0291C181.959 39.9652 181.79 39.9332 181.592 39.9332C181.324 39.9332 181.099 39.9912 180.917 40.1072C180.737 40.2232 180.648 40.3736 180.651 40.5582C180.648 40.7169 180.706 40.8459 180.825 40.9453C180.945 41.0447 181.144 41.1264 181.421 41.1903L182.352 41.3892C182.868 41.5005 183.251 41.6768 183.502 41.9183C183.755 42.1598 183.883 42.4759 183.886 42.8665C183.883 43.2098 183.783 43.5128 183.584 43.7756C183.387 44.036 183.114 44.2396 182.763 44.3864C182.413 44.5331 182.011 44.6065 181.556 44.6065C180.888 44.6065 180.351 44.4669 179.944 44.1875C179.537 43.9058 179.294 43.514 179.216 43.0121L180.469 42.8913C180.526 43.1375 180.647 43.3234 180.832 43.4489C181.016 43.5743 181.257 43.6371 181.553 43.6371C181.858 43.6371 182.103 43.5743 182.288 43.4489C182.475 43.3234 182.568 43.1683 182.568 42.9837C182.568 42.8274 182.508 42.6984 182.387 42.5966C182.269 42.4948 182.084 42.4167 181.833 42.3622L180.903 42.1669C180.379 42.058 179.992 41.8745 179.741 41.6165C179.491 41.3561 179.366 41.027 179.369 40.6293C179.366 40.2931 179.457 40.0019 179.642 39.7557C179.829 39.5071 180.088 39.3153 180.42 39.1804C180.754 39.0431 181.138 38.9744 181.574 38.9744C182.213 38.9744 182.716 39.1106 183.083 39.3828C183.452 39.6551 183.681 40.0232 183.768 40.4872ZM187.669 39.0455V40.0398H184.534V39.0455H187.669ZM185.308 37.7386H186.593V42.8594C186.593 43.0322 186.619 43.1648 186.672 43.2571C186.726 43.3471 186.797 43.4086 186.885 43.4418C186.972 43.4749 187.069 43.4915 187.176 43.4915C187.256 43.4915 187.33 43.4856 187.396 43.4737C187.465 43.4619 187.517 43.4512 187.552 43.4418L187.769 44.4467C187.7 44.4704 187.602 44.4964 187.474 44.5249C187.349 44.5533 187.195 44.5698 187.012 44.5746C186.69 44.584 186.4 44.5355 186.142 44.429C185.884 44.3201 185.68 44.152 185.528 43.9247C185.379 43.6974 185.306 43.4134 185.308 43.0724V37.7386ZM191.101 44.6065C190.554 44.6065 190.081 44.4929 189.684 44.2656C189.288 44.036 188.984 43.7116 188.771 43.2926C188.558 42.8712 188.452 42.3752 188.452 41.8047C188.452 41.2436 188.558 40.7512 188.771 40.3274C188.987 39.9013 189.287 39.5698 189.673 39.3331C190.059 39.094 190.512 38.9744 191.033 38.9744C191.369 38.9744 191.687 39.0289 191.985 39.1378C192.286 39.2443 192.551 39.41 192.78 39.6349C193.012 39.8598 193.195 40.1463 193.327 40.4943C193.46 40.84 193.526 41.2519 193.526 41.7301V42.1243H189.055V41.2578H192.294C192.291 41.0116 192.238 40.7926 192.134 40.6009C192.03 40.4067 191.884 40.254 191.697 40.1428C191.513 40.0315 191.297 39.9759 191.051 39.9759C190.788 39.9759 190.557 40.0398 190.358 40.1676C190.16 40.2931 190.005 40.4588 189.893 40.6648C189.784 40.8684 189.729 41.0921 189.726 41.3359V42.0923C189.726 42.4096 189.784 42.6818 189.9 42.9091C190.016 43.134 190.179 43.3068 190.387 43.4276C190.595 43.5459 190.839 43.6051 191.118 43.6051C191.305 43.6051 191.475 43.5791 191.626 43.527C191.778 43.4725 191.909 43.3932 192.02 43.2891C192.132 43.1849 192.216 43.0559 192.273 42.902L193.473 43.0369C193.397 43.3542 193.253 43.6312 193.04 43.8679C192.829 44.1023 192.559 44.2846 192.23 44.4148C191.901 44.5426 191.524 44.6065 191.101 44.6065ZM194.614 44.5V39.0455H195.842V39.9723H195.906C196.02 39.6598 196.208 39.416 196.471 39.2408C196.734 39.0632 197.047 38.9744 197.412 38.9744C197.781 38.9744 198.093 39.0644 198.346 39.2443C198.602 39.4219 198.781 39.6645 198.886 39.9723H198.942C199.063 39.6693 199.267 39.4278 199.553 39.2479C199.842 39.0656 200.184 38.9744 200.58 38.9744C201.081 38.9744 201.491 39.133 201.808 39.4503C202.125 39.7675 202.284 40.2304 202.284 40.8388V44.5H200.995V41.0376C200.995 40.6991 200.905 40.4517 200.725 40.2955C200.545 40.1368 200.325 40.0575 200.065 40.0575C199.754 40.0575 199.512 40.1546 199.337 40.3487C199.164 40.5405 199.077 40.7902 199.077 41.098V44.5H197.817V40.9844C197.817 40.7027 197.732 40.4777 197.561 40.3097C197.393 40.1416 197.173 40.0575 196.901 40.0575C196.716 40.0575 196.548 40.1049 196.396 40.1996C196.245 40.2919 196.124 40.4233 196.034 40.5938C195.944 40.7618 195.899 40.9583 195.899 41.1832V44.5H194.614Z" fill="#475569"/>
<defs>
<linearGradient id="paint0_linear_194_7021" x1="7.85564" y1="37.354" x2="62.4701" y2="31.5848" gradientUnits="userSpaceOnUse">
<stop stop-color="#5D6AA8"/>
<stop offset="1" stop-color="#80CFB7"/>
</linearGradient>
<linearGradient id="paint1_linear_194_7021" x1="6.89082" y1="17.6094" x2="49.5884" y2="52.1482" gradientUnits="userSpaceOnUse">
<stop stop-color="#4A93C7"/>
<stop offset="1" stop-color="#1BB2CC"/>
</linearGradient>
<clipPath id="clip0_194_7021">
<rect width="28.5557" height="28.5557" fill="white" transform="translate(16.9536 19.5811)"/>
</clipPath>
</defs>
</svg>
