<svg width="138" height="49" viewBox="0 0 138 49" fill="none" xmlns="http://www.w3.org/2000/svg">
<path d="M45.5622 48.5C43.4083 48.5 41.7929 48.31 40.716 47.9299C39.6707 47.5182 38.9263 46.8056 38.4829 45.7921C38.0711 44.747 37.8652 43.1951 37.8652 41.1365C37.8652 39.2995 38.087 37.8585 38.5304 36.8134C39.0055 35.7682 39.7499 35.0239 40.7635 34.5805C41.8087 34.1055 43.2341 33.8679 45.0396 33.8679H52.8316V32.3002C52.8316 31.3184 52.689 30.59 52.404 30.1149C52.1506 29.6398 51.6596 29.3073 50.9311 29.1173C50.2342 28.9272 49.1731 28.8322 47.7478 28.8322C45.7839 28.8322 43.0916 29.0223 39.6707 29.4023V25.0317C42.173 24.715 45.1029 24.5566 48.4604 24.5566C51.4062 24.5566 53.6709 24.7783 55.2547 25.2217C56.8701 25.6651 58.0262 26.4252 58.7231 27.502C59.4199 28.5789 59.7683 30.1466 59.7683 32.2052V48.0249H52.9741V45.9346C52.4356 46.8531 51.7071 47.5023 50.7885 47.8824C49.87 48.2941 48.1279 48.5 45.5622 48.5ZM48.2704 44.1769C49.6641 44.1769 50.6618 44.1294 51.2637 44.0344C51.7071 43.971 52.008 43.876 52.1664 43.7493C52.3564 43.6226 52.5148 43.4168 52.6415 43.1317C52.7682 42.91 52.8316 42.5775 52.8316 42.1341V37.6685H48.0803C47.0034 37.6685 46.2432 37.7477 45.7998 37.906C45.3563 38.0327 45.0554 38.3177 44.897 38.7611C44.7387 39.1728 44.6595 39.9171 44.6595 40.9939C44.6595 42.0391 44.7387 42.7675 44.897 43.1792C45.0554 43.591 45.3563 43.8602 45.7998 43.9869C46.2749 44.1135 47.0984 44.1769 48.2704 44.1769Z" fill="#E8603D"/>
<path d="M71.858 48.5C69.3873 48.5 66.3624 48.2625 62.7831 47.7874V43.1792C67.1859 43.8443 70.2425 44.1769 71.953 44.1769C73.41 44.1769 74.487 44.0344 75.1838 43.7493C75.8806 43.4643 76.2291 42.9417 76.2291 42.1816V40.7564C76.2291 39.9646 76.0073 39.4104 75.5639 39.0937C75.1205 38.7453 74.2494 38.5711 72.9507 38.5711H69.9575C67.5185 38.5711 65.6339 38.096 64.3035 37.1459C62.9732 36.1641 62.308 34.7389 62.308 32.8703V30.0674C62.308 28.0721 63.2583 26.6628 65.1587 25.8393C67.0592 24.9842 69.9258 24.5566 73.7584 24.5566C75.2788 24.5566 78.0029 24.6992 81.9305 24.9842V29.4023C76.9893 29.0223 74.2019 28.8322 73.5684 28.8322C71.6996 28.8322 70.4801 28.9589 69.91 29.2123C69.4032 29.4973 69.1498 30.0199 69.1498 30.78V32.0152C69.1498 32.4269 69.3556 32.7911 69.7674 33.1078C70.1792 33.3929 70.781 33.5354 71.5729 33.5354H74.6137C80.2518 33.5354 83.0708 35.3723 83.0708 39.0462V41.9441C83.0708 43.0526 82.8649 44.0185 82.4532 44.842C82.0414 45.6654 81.5029 46.3147 80.8377 46.7898C80.2043 47.2331 79.3807 47.5815 78.3671 47.8349C77.3852 48.0883 76.3558 48.2625 75.2788 48.3575C74.2969 48.4525 73.1566 48.5 71.858 48.5Z" fill="#E8603D"/>
<path d="M85.6075 14.7703H92.5443V27.8346C92.9877 25.6493 95.4109 24.5566 99.8137 24.5566C102.759 24.5566 104.818 25.095 105.99 26.1719C107.194 27.217 107.796 28.8797 107.796 31.1601V48.0249H100.859V31.9677C100.859 31.0809 100.764 30.4316 100.574 30.0199C100.415 29.5765 100.083 29.2756 99.5761 29.1173C99.0693 28.9272 98.2616 28.8322 97.153 28.8322C95.791 28.8322 94.7932 28.9114 94.1597 29.0698C93.5262 29.2281 93.0986 29.529 92.8769 29.9724C92.6552 30.3841 92.5443 31.0492 92.5443 31.9677V48.0249H85.6075V14.7703Z" fill="#E8603D"/>
<path d="M111.441 16.718H118.378V22.3238H111.441V16.718ZM111.441 25.0317H118.378V48.0249H111.441V25.0317Z" fill="#E8603D"/>
<path d="M122.047 25.0317H128.651V29.0698C128.651 28.3413 128.952 27.6287 129.554 26.932C130.156 26.2352 130.916 25.6651 131.835 25.2217C132.785 24.7783 133.719 24.5566 134.638 24.5566H137.108V30.3049H134.733C132.769 30.3049 131.312 30.6058 130.362 31.2076C129.443 31.8093 128.984 32.807 128.984 34.2005V48.0249H122.047V25.0317Z" fill="#E8603D"/>
<path d="M0.89209 35.527C0.89209 42.6918 6.70029 48.5 13.8651 48.5V13.473C13.8651 6.30819 8.05686 0.5 0.89209 0.5V35.527Z" fill="#E8603D"/>
<path d="M17.1081 26.5392C14.2422 31.5031 15.943 37.8504 20.9069 40.7163L34.3888 48.5001C37.2547 43.5362 35.5539 37.1889 30.59 34.3229L17.1081 26.5392Z" fill="#E8603D"/>
<path d="M17.1081 36.7748C14.2422 31.8109 15.943 25.4636 20.9069 22.5977L34.3888 14.8139C37.2547 19.7778 35.5539 26.1251 30.59 28.991L17.1081 36.7748Z" fill="#B03312"/>
<path d="M0.89209 0.499928C0.89209 7.6647 6.70029 13.4729 13.8651 13.4729C13.8651 6.30813 8.05686 0.499928 0.89209 0.499928Z" fill="#B03312"/>
</svg>
